<svg width="21" height="11" viewBox="0 0 21 11" fill="none" xmlns="http://www.w3.org/2000/svg">
<path d="M0.971296 0.558476C0.865042 0.448763 0.720144 0.387084 0.568983 0.387084C0.417822 0.387084 0.272757 0.448763 0.166502 0.558476C-0.0555 0.785155 -0.0555001 1.15231 0.166502 1.37899L7.93692 9.30104C8.61782 9.99713 9.54246 10.3885 10.5069 10.3885C11.4713 10.3885 12.3959 9.99715 13.0768 9.30104L20.8472 1.37899C21.0562 1.15024 21.0501 0.793825 20.8332 0.572674C20.6164 0.351696 20.2668 0.345305 20.0424 0.558507L12.272 8.48056C11.8041 8.95846 11.1691 9.22694 10.5068 9.22694C9.84453 9.22694 9.20956 8.95845 8.74163 8.48056L0.971296 0.558476Z" fill="url(#paint0_linear_186_952)"/>
<defs>
<linearGradient id="paint0_linear_186_952" x1="-6.66667" y1="9.08111" x2="-2.91201" y2="-6.18823" gradientUnits="userSpaceOnUse">
<stop stop-color="#8546D7"/>
<stop offset="1" stop-color="#B28EE1"/>
</linearGradient>
</defs>
</svg>
