<svg width="25" height="25" viewBox="0 0 25 25" fill="none" xmlns="http://www.w3.org/2000/svg">
<path d="M14.1791 12.4395L24.7109 1.90568C25.1143 1.45171 25.0932 0.761355 24.6623 0.333215C24.2318 -0.0951954 23.5415 -0.112763 23.0899 0.293599L12.5581 10.8274L2.02633 0.293599C1.5715 -0.0833768 0.904552 -0.0520696 0.486797 0.365799C0.0690414 0.783668 0.0377075 1.45075 0.414611 1.90563L10.9464 12.4394L0.414611 22.9732C0.166427 23.1787 0.0163077 23.4793 0.00129496 23.8013C-0.0140366 24.1233 0.107341 24.4367 0.335074 24.6649C0.563135 24.8926 0.876472 25.014 1.19847 24.9987C1.52043 24.9837 1.821 24.8335 2.02638 24.5853L12.5582 14.0515L23.09 24.5853C23.5448 24.9623 24.2117 24.931 24.6295 24.5131C25.0472 24.0952 25.0786 23.4282 24.7017 22.9733L14.1791 12.4395Z" fill="#E9488B"/>
</svg>
