<svg width="20" height="29" viewBox="0 0 20 29" fill="none" xmlns="http://www.w3.org/2000/svg">
<path d="M9.99976 0C4.48175 0 0 4.59371 0 10.2496C0 17.3142 4.88688 23.6245 9.71262 28.5707C9.78796 28.6505 9.89174 28.6957 10 28.6957C10.1083 28.6957 10.2121 28.6505 10.2874 28.5707C15.1129 23.6246 20 17.3145 20 10.2496C20 4.59371 15.5183 0 10.0002 0H9.99976ZM9.99976 0.819892C15.0853 0.819892 19.1995 5.037 19.1995 10.2495C19.1995 16.7853 14.6714 22.8294 9.99976 27.6738C5.32801 22.8292 0.79998 16.7851 0.79998 10.2495C0.79998 5.03693 4.91431 0.819892 9.99976 0.819892ZM9.99976 4.91972C7.13261 4.91972 4.79981 7.3108 4.79981 10.2496C4.79981 13.1883 7.13261 15.5794 9.99976 15.5794C12.8669 15.5794 15.1997 13.1883 15.1997 10.2496C15.1997 7.3108 12.8669 4.91972 9.99976 4.91972ZM9.99976 5.73961C12.4344 5.73961 14.3998 7.75409 14.3998 10.2496C14.3998 12.745 12.4344 14.7595 9.99976 14.7595C7.5651 14.7595 5.59972 12.745 5.59972 10.2496C5.59972 7.75409 7.5651 5.73961 9.99976 5.73961Z" fill="url(#paint0_linear_135_1955)"/>
<defs>
<linearGradient id="paint0_linear_135_1955" x1="17.3856" y1="37.8054" x2="-11.2827" y2="27.4891" gradientUnits="userSpaceOnUse">
<stop stop-color="#8546D7"/>
<stop offset="1" stop-color="#B28EE1"/>
</linearGradient>
</defs>
</svg>
