<svg width="25" height="18" viewBox="0 0 25 18" fill="none" xmlns="http://www.w3.org/2000/svg">
<path d="M2.18745 0C0.974614 0 0 1.00115 0 2.22387V15.0178C0 16.2403 0.974614 17.2513 2.18745 17.2513H22.8125C24.0254 17.2513 25 16.2405 25 15.0178V2.22387C25 1.00115 24.0254 0 22.8125 0H2.18745ZM2.18745 0.616068H22.8125C23.203 0.616068 23.5546 0.770143 23.8281 1.01082L13.4866 10.6955C12.9137 11.2319 12.1071 11.2218 11.5334 10.686L1.17177 1.01071C1.44534 0.77004 1.79694 0.615965 2.18734 0.615965L2.18745 0.616068ZM0.800618 1.51126L8.52554 8.73145L1.02551 16.1057C0.778095 15.8205 0.625069 15.4374 0.625069 15.0177V2.22382C0.625069 1.96166 0.696566 1.72765 0.800763 1.51148L0.800618 1.51126ZM24.1992 1.51126C24.3036 1.72744 24.3748 1.96145 24.3748 2.2236V15.0175C24.3748 15.437 24.222 15.8203 23.9744 16.1052L16.4939 8.72111L24.1987 1.51082L24.1992 1.51126ZM16.0451 9.14569L23.467 16.4814C23.2667 16.577 23.0487 16.6355 22.8126 16.6355H2.18751C1.95143 16.6355 1.73345 16.577 1.5331 16.4814L8.97454 9.15504L11.1033 11.1382C11.8992 11.882 13.1204 11.8828 13.9157 11.1382L16.0448 9.14536L16.0451 9.14569Z" fill="url(#paint0_linear_135_1970)"/>
<defs>
<linearGradient id="paint0_linear_135_1970" x1="21.732" y1="22.728" x2="-4.21693" y2="3.31257" gradientUnits="userSpaceOnUse">
<stop stop-color="#8546D7"/>
<stop offset="1" stop-color="#B28EE1"/>
</linearGradient>
</defs>
</svg>
