<svg width="25" height="25" viewBox="0 0 25 25" fill="none" xmlns="http://www.w3.org/2000/svg">
<path d="M19.9209 24.9998C21.3711 24.9998 22.7347 24.6577 23.9876 23.9657C24.532 23.6654 24.894 23.1416 24.9804 22.5284C25.0663 21.9219 24.867 21.3262 24.4339 20.8932L20.6953 17.1545C20.2152 16.6744 19.5043 16.4833 18.8411 16.6526C15.5574 17.4972 12.3631 16.7679 10.298 14.7022C8.23293 12.6371 7.50361 9.44312 8.34741 6.15917C8.51806 5.49547 8.3258 4.78505 7.84572 4.30499L4.10706 0.566334C3.67396 0.1335 3.07857 -0.0668572 2.47186 0.0198245C1.85892 0.106499 1.33484 0.468593 1.03401 1.01293C-1.48716 5.57727 0.637894 11.6041 7.01705 17.9836C11.6451 22.6114 16.0868 25.0004 19.9212 25.0004L19.9209 24.9998ZM1.7115 1.38633C1.89322 1.05665 2.20994 0.83793 2.57983 0.785548C2.63492 0.777717 2.69027 0.773937 2.74508 0.773937C3.04939 0.773937 3.33939 0.893018 3.55916 1.11307L7.29781 4.85173C7.5851 5.13902 7.69986 5.56619 7.59699 5.9658C6.68434 9.51816 7.48925 12.9881 9.75007 15.2492C12.0104 17.5097 15.4801 18.3141 19.0334 17.4021C19.4336 17.2997 19.8605 17.4145 20.1478 17.7015L23.8864 21.4401C24.1459 21.6994 24.2653 22.0566 24.214 22.4195C24.1616 22.7897 23.9429 23.1059 23.6132 23.2878C17.8983 26.4432 11.1045 20.976 7.56394 17.4352C4.02319 13.8942 -1.44502 7.10116 1.71133 1.38598L1.7115 1.38633Z" fill="url(#paint0_linear_135_1947)"/>
<path d="M23.6132 11.5477C23.6437 11.5477 23.6747 11.5442 23.7061 11.5364C23.9137 11.4856 24.0406 11.2758 23.9896 11.0685C23.4358 8.81357 22.1181 6.5595 20.279 4.72066C18.4407 2.88181 16.1864 1.56417 13.9312 1.01035C13.723 0.957692 13.514 1.08622 13.4627 1.29387C13.4117 1.50151 13.5386 1.71131 13.7462 1.7618C15.8658 2.28267 17.9917 3.52799 19.7314 5.26799C21.4717 7.00798 22.7167 9.13355 23.2373 11.2529C23.2811 11.4295 23.439 11.5478 23.6132 11.5478L23.6132 11.5477Z" fill="url(#paint1_linear_135_1947)"/>
<path d="M12.0842 8.52874C11.8771 8.47582 11.6671 8.60462 11.6158 8.81226C11.5647 9.01991 11.6917 9.22917 11.8993 9.2802C12.654 9.4657 13.5132 9.99875 14.2571 10.7423C15.001 11.4862 15.534 12.3454 15.7192 13.1001C15.7624 13.2767 15.9206 13.3949 16.0948 13.3949C16.1253 13.3949 16.1563 13.3914 16.1874 13.3836C16.395 13.3328 16.5222 13.123 16.4712 12.9157C16.2533 12.0275 15.6457 11.0361 14.8046 10.195C13.9638 9.35444 12.9723 8.74691 12.0843 8.52875L12.0842 8.52874Z" fill="url(#paint2_linear_135_1947)"/>
<path d="M19.4788 12.1764C19.522 12.353 19.6802 12.4712 19.8544 12.4712C19.8849 12.4712 19.9159 12.4677 19.947 12.4599C20.1546 12.4091 20.2818 12.1993 20.2308 11.9919C19.8436 10.4145 18.8888 8.80415 17.5425 7.45754C16.1959 6.11148 14.5858 5.15646 13.0081 4.76951C12.8007 4.71577 12.5906 4.84511 12.5398 5.05303C12.4888 5.26067 12.6157 5.47047 12.8236 5.52096C14.2658 5.87522 15.7474 6.75739 16.9951 8.00487C18.2426 9.25318 19.1248 10.7347 19.4788 12.1764V12.1764Z" fill="url(#paint3_linear_135_1947)"/>
<defs>
<linearGradient id="paint0_linear_135_1947" x1="21.732" y1="32.937" x2="-10.2251" y2="16.4376" gradientUnits="userSpaceOnUse">
<stop stop-color="#8546D7"/>
<stop offset="1" stop-color="#B28EE1"/>
</linearGradient>
<linearGradient id="paint1_linear_135_1947" x1="22.6218" y1="14.8967" x2="9.13685" y2="7.93416" gradientUnits="userSpaceOnUse">
<stop stop-color="#8546D7"/>
<stop offset="1" stop-color="#B28EE1"/>
</linearGradient>
<linearGradient id="paint2_linear_135_1947" x1="15.8448" y1="14.9435" x2="9.60935" y2="11.7242" gradientUnits="userSpaceOnUse">
<stop stop-color="#8546D7"/>
<stop offset="1" stop-color="#B28EE1"/>
</linearGradient>
<linearGradient id="paint3_linear_135_1947" x1="19.2337" y1="14.9201" x2="9.37355" y2="9.82947" gradientUnits="userSpaceOnUse">
<stop stop-color="#8546D7"/>
<stop offset="1" stop-color="#B28EE1"/>
</linearGradient>
</defs>
</svg>
