<svg width="43" height="43" viewBox="0 0 43 43" fill="none" xmlns="http://www.w3.org/2000/svg">
<circle r="21.5" transform="matrix(-1 0 0 1 21.5 21.5001)" fill="url(#paint0_linear_135_527)"/>
<path d="M21.1714 12.565C21.0617 12.4587 21 12.3138 21 12.1626C21 12.0114 21.0617 11.8664 21.1714 11.7601C21.398 11.5381 21.7651 11.5381 21.9918 11.7601L29.9127 19.5316C30.6087 20.2126 31 21.1374 31 22.1019C31 23.0665 30.6087 23.9912 29.9127 24.6722L21.9918 32.4437C21.763 32.6527 21.4067 32.6466 21.1856 32.4296C20.9646 32.2129 20.9582 31.8632 21.1714 31.6388L29.0923 23.8673C29.5702 23.3993 29.8386 22.7642 29.8386 22.1018C29.8386 21.4395 29.5702 20.8044 29.0923 20.3364L21.1714 12.565Z" fill="white"/>
<defs>
<linearGradient id="paint0_linear_135_527" x1="-1.25811e-07" y1="11.2462" x2="44.5127" y2="12.2696" gradientUnits="userSpaceOnUse">
<stop stop-color="#8546D7"/>
<stop offset="1" stop-color="#B28EE1"/>
</linearGradient>
</defs>
</svg>
