<svg width="75" height="75" viewBox="0 0 75 75" fill="none" xmlns="http://www.w3.org/2000/svg">
<circle cx="37.5" cy="37.5" r="37.5" fill="url(#paint0_linear_135_497)"/>
<path d="M37.4999 26.3161C36.8033 26.3161 36.2387 26.8808 36.2387 27.5775V36.7231H27.0944C26.3978 36.7231 25.8333 37.2877 25.8333 37.9844C25.8333 38.6811 26.3978 39.2458 27.0944 39.2458H36.2387V48.3914C36.2387 49.088 36.8033 49.6527 37.4999 49.6527C38.1965 49.6527 38.7611 49.088 38.7611 48.3914V39.2458H47.9054C48.602 39.2458 49.1666 38.6811 49.1666 37.9844C49.1666 37.2877 48.602 36.7231 47.9054 36.7231H38.7611V27.5775C38.7611 26.8808 38.1965 26.3161 37.4999 26.3161Z" fill="white"/>
<defs>
<linearGradient id="paint0_linear_135_497" x1="65.1961" y1="98.8095" x2="-30.6747" y2="49.3107" gradientUnits="userSpaceOnUse">
<stop stop-color="#8546D7"/>
<stop offset="1" stop-color="#B28EE1"/>
</linearGradient>
</defs>
</svg>
