<svg width="75" height="75" viewBox="0 0 75 75" fill="none" xmlns="http://www.w3.org/2000/svg">
<circle cx="37.5" cy="37.5" r="37.5" fill="url(#paint0_linear_135_493)"/>
<path d="M37.5 36.6889C36.8034 36.6889 37.6875 36.689 36.2387 36.6891L27.0944 36.689C26.3978 36.689 25.8333 37.2536 25.8333 37.9502C25.8333 38.6468 26.3978 39.2113 27.0944 39.2113H36.2387C37.5 39.2113 36.694 39.2113 37.3906 39.2113C38.0872 39.2113 37.4999 39.2113 38.7611 39.2113H47.9054C48.602 39.2113 49.1666 38.6468 49.1666 37.9502C49.1666 37.2536 48.602 36.689 47.9054 36.689H38.7611C40 36.689 38.1966 36.6889 37.5 36.6889Z" fill="white"/>
<defs>
<linearGradient id="paint0_linear_135_493" x1="65.1961" y1="98.8095" x2="-30.6747" y2="49.3107" gradientUnits="userSpaceOnUse">
<stop stop-color="#8546D7"/>
<stop offset="1" stop-color="#B28EE1"/>
</linearGradient>
</defs>
</svg>
