<svg width="37" height="37" viewBox="0 0 37 37" fill="none" xmlns="http://www.w3.org/2000/svg">
<circle cx="18.2816" cy="18.2816" r="18.2816" fill="url(#paint0_linear_135_1966)"/>
<path d="M27.2365 7.47417C23.5517 8.99614 20.1073 11.0788 16.5827 12.9212C12.8179 14.8437 9.1331 17.0065 5.36824 19.0091C5.12793 19.1693 5.20804 19.6499 5.44835 19.6499C7.93155 20.0504 10.3347 20.6111 12.7378 21.2519C12.8179 23.9755 12.7378 26.7791 12.7378 29.5026C12.7378 29.9031 13.1383 29.9832 13.2985 29.6628C14.5801 27.5801 15.8618 25.5775 17.2235 23.5749C19.146 24.8566 21.0685 26.1383 22.8308 27.5801C22.991 27.7403 23.2313 27.5801 23.3114 27.3398C23.8721 24.0556 24.4328 20.8514 25.314 17.5672C26.115 14.3631 26.916 11.0788 27.5569 7.79459C27.7171 7.71448 27.4768 7.39407 27.2365 7.47417ZM14.9005 21.4122C14.8204 21.4923 14.7403 21.5724 14.7403 21.7326C14.6602 21.9729 14.5 22.2933 14.4199 22.6938C14.0194 24.376 13.7791 26.0581 13.3786 27.7403V21.0917C17.1434 17.407 20.9884 13.8023 24.9135 10.3579C22.5905 12.9212 20.2675 15.4845 17.8644 18.1279L15.7016 20.531C15.3011 20.8514 15.0608 21.0917 14.9005 21.4122ZM25.6344 8.91603C21.3088 12.6809 17.0633 16.606 12.9781 20.6111C10.8153 20.0504 8.65248 19.4897 6.48969 19.0892C9.93413 17.3269 13.2184 15.4845 16.5827 13.7222C19.6266 12.1202 22.5905 10.3579 25.6344 8.91603ZM13.8592 27.6602C14.2597 26.2184 14.5 24.6964 14.8204 23.1744C14.9005 22.7739 14.9806 22.4535 15.0608 22.1331C15.6215 22.5336 16.1822 22.9341 16.7429 23.2545C15.7817 24.6964 14.8204 26.2184 13.8592 27.6602ZM24.7533 17.5672C23.9522 20.6111 23.3915 23.655 22.8308 26.7791C20.4277 24.9367 17.8644 23.2545 15.3812 21.5724C15.3812 21.5724 15.3812 21.4923 15.4613 21.4923C15.7817 21.0917 16.1021 20.7713 16.4225 20.4509L18.5853 18.0478C21.3088 15.084 24.0323 12.0401 26.7558 9.07624C26.1951 11.8799 25.4742 14.6835 24.7533 17.5672Z" fill="white" stroke="white" stroke-width="0.2"/>
<defs>
<linearGradient id="paint0_linear_135_1966" x1="31.7837" y1="48.1705" x2="-14.9542" y2="24.0394" gradientUnits="userSpaceOnUse">
<stop stop-color="#8546D7"/>
<stop offset="1" stop-color="#B28EE1"/>
</linearGradient>
</defs>
</svg>
