<svg width="36" height="36" viewBox="0 0 36 36" fill="none" xmlns="http://www.w3.org/2000/svg">
<circle cx="18" cy="18" r="18" fill="url(#paint0_linear_135_682)"/>
<path d="M22.9024 27.8578C23.9268 27.8578 24.8901 27.6161 25.7751 27.1271C26.1597 26.915 26.4154 26.5449 26.4765 26.1117C26.5371 25.6832 26.3964 25.2623 26.0904 24.9564L23.4494 22.315C23.1103 21.9758 22.6081 21.8408 22.1396 21.9604C19.82 22.5571 17.5635 22.0418 16.1048 20.5825C14.646 19.1235 14.1308 16.8669 14.7268 14.5468C14.8474 14.0779 14.7116 13.576 14.3724 13.2368L11.7314 10.5954C11.4255 10.2896 11.0049 10.1481 10.5763 10.2093C10.1434 10.2706 9.77313 10.5264 9.56063 10.911C7.77967 14.1357 9.28081 18.3937 13.7871 22.9008C17.0564 26.1703 20.194 27.8582 22.9026 27.8582L22.9024 27.8578ZM10.0392 11.1748C10.1676 10.9418 10.3913 10.7873 10.6526 10.7503C10.6915 10.7448 10.7306 10.7421 10.7693 10.7421C10.9843 10.7421 11.1892 10.8262 11.3444 10.9817L13.9854 13.6231C14.1883 13.826 14.2694 14.1278 14.1967 14.4102C13.552 16.9199 14.1206 19.3715 15.7177 20.9689C17.3144 22.566 19.7654 23.1343 22.2755 22.4899C22.5582 22.4176 22.8597 22.4987 23.0627 22.7015L25.7037 25.3428C25.887 25.526 25.9713 25.7783 25.935 26.0347C25.898 26.2963 25.7435 26.5197 25.5106 26.6482C21.4736 28.8775 16.6744 25.0149 14.1734 22.5133C11.6722 20.0116 7.80943 15.2123 10.0391 11.1745L10.0392 11.1748Z" fill="white"/>
<path d="M25.5104 18.3537C25.5319 18.3537 25.5539 18.3512 25.576 18.3457C25.7227 18.3098 25.8123 18.1616 25.7763 18.0151C25.3851 16.422 24.4543 14.8295 23.1551 13.5303C21.8565 12.2312 20.2641 11.3003 18.671 10.909C18.5239 10.8718 18.3763 10.9626 18.3401 11.1093C18.304 11.256 18.3937 11.4042 18.5403 11.4399C20.0377 11.8079 21.5394 12.6877 22.7683 13.917C23.9976 15.1463 24.8772 16.648 25.2449 18.1454C25.2758 18.2701 25.3874 18.3537 25.5104 18.3537L25.5104 18.3537Z" fill="white"/>
<path d="M17.3666 16.2208C17.2203 16.1834 17.0719 16.2744 17.0357 16.4211C16.9996 16.5678 17.0893 16.7156 17.236 16.7516C17.7691 16.8827 18.376 17.2592 18.9015 17.7845C19.427 18.31 19.8035 18.9169 19.9343 19.45C19.9648 19.5748 20.0766 19.6583 20.1997 19.6583C20.2212 19.6583 20.2431 19.6558 20.2651 19.6503C20.4118 19.6144 20.5016 19.4662 20.4655 19.3197C20.3116 18.6924 19.8825 17.992 19.2883 17.3979C18.6943 16.8041 17.9939 16.3749 17.3666 16.2208L17.3666 16.2208Z" fill="white"/>
<path d="M22.5901 18.7972C22.6206 18.922 22.7324 19.0055 22.8554 19.0055C22.8769 19.0055 22.8989 19.003 22.9208 18.9975C23.0675 18.9617 23.1573 18.8134 23.1213 18.667C22.8478 17.5527 22.1733 16.4151 21.2223 15.4638C20.2711 14.513 19.1337 13.8383 18.0191 13.565C17.8726 13.527 17.7242 13.6184 17.6884 13.7653C17.6523 13.912 17.742 14.0602 17.8889 14.0958C18.9076 14.3461 19.9542 14.9692 20.8356 15.8505C21.7169 16.7323 22.34 17.7789 22.5901 18.7972V18.7972Z" fill="white"/>
<defs>
<linearGradient id="paint0_linear_135_682" x1="31.2941" y1="47.4286" x2="-14.7239" y2="23.6691" gradientUnits="userSpaceOnUse">
<stop stop-color="#8546D7"/>
<stop offset="1" stop-color="#B28EE1"/>
</linearGradient>
</defs>
</svg>
