<svg width="37" height="38" viewBox="0 0 37 38" fill="none" xmlns="http://www.w3.org/2000/svg">
<circle cx="18.2816" cy="19.0282" r="18.2816" fill="url(#paint0_linear_135_1961)"/>
<path fill-rule="evenodd" clip-rule="evenodd" d="M14.6965 12.103C14.6623 12.1064 14.6288 12.1136 14.5962 12.1246C13.5764 12.4378 12.8542 12.9916 12.4643 13.713C12.0743 14.4342 12.0249 15.2796 12.1925 16.1383C12.5273 17.8558 13.7157 19.7019 15.2187 21.2392C16.7218 22.7766 18.5342 24.0072 20.2628 24.3658C21.1269 24.545 21.9876 24.4975 22.7311 24.1082C23.4747 23.7188 24.0663 22.9927 24.4338 21.9546C24.5036 21.7542 24.4266 21.5322 24.2479 21.4181L20.9854 19.3719L20.9782 19.3648C20.9621 19.3541 20.9455 19.3447 20.9281 19.3361C20.8802 19.3051 20.8268 19.2832 20.7708 19.2717H20.7564C20.7446 19.269 20.7326 19.2666 20.7206 19.2647H20.7134C20.6371 19.2602 20.5609 19.2749 20.4918 19.3077C20.4665 19.3196 20.4426 19.334 20.4202 19.3505C20.4054 19.3592 20.391 19.3688 20.3773 19.3792C20.3723 19.3862 20.3675 19.3934 20.3629 19.4006C20.345 19.4161 20.3282 19.4329 20.3129 19.4507L19.5975 20.1734C18.3003 19.5204 17.3029 18.4258 16.4065 16.9467L17.0648 16.2956H17.0647C17.0773 16.2844 17.0893 16.2724 17.1004 16.2598C17.1105 16.2507 17.1201 16.2411 17.1292 16.2312V16.2242C17.1391 16.2151 17.1487 16.2055 17.1578 16.1955V16.1884C17.1627 16.1814 17.1675 16.1742 17.172 16.1669C17.1769 16.1622 17.1817 16.1576 17.1864 16.1527C17.1916 16.141 17.1964 16.129 17.2007 16.1169V16.1099C17.2031 16.1051 17.2055 16.1004 17.2078 16.0956C17.2129 16.0862 17.2177 16.0768 17.2221 16.0671C17.225 16.0552 17.2274 16.0433 17.2293 16.0313V16.0241C17.2324 16.0101 17.2347 15.9957 17.2365 15.9813V15.9741C17.237 15.9621 17.237 15.9503 17.2365 15.9383V15.9313C17.237 15.9193 17.237 15.9074 17.2365 15.8955V15.8813C17.2346 15.8694 17.2322 15.8574 17.2293 15.8456V15.8384C17.2221 15.8114 17.2126 15.785 17.2007 15.7598V15.7526C17.1924 15.733 17.1828 15.7138 17.172 15.6954L17.1648 15.6812H17.165C17.1626 15.6788 17.1602 15.6764 17.1578 15.674L15.1188 12.3258C15.0384 12.1922 14.8955 12.1085 14.7395 12.104C14.7253 12.1034 14.7109 12.1034 14.6967 12.104L14.6965 12.103ZM14.532 13.1118L16.1989 15.8663L15.5048 16.5532C15.3597 16.6996 15.3303 16.9253 15.4333 17.104C16.4924 18.9379 17.7472 20.3647 19.5041 21.1391C19.6765 21.2157 19.8782 21.1788 20.0122 21.0461L20.749 20.3093L23.4391 21.9906C23.1413 22.661 22.7529 23.0601 22.3088 23.2928C21.7942 23.5622 21.1658 23.6131 20.4486 23.4645C19.0142 23.1669 17.2816 22.0398 15.8698 20.5955C14.4579 19.1513 13.3652 17.3951 13.0867 15.9663C12.9475 15.252 13.009 14.6368 13.2728 14.1492C13.4999 13.7292 13.8857 13.3697 14.532 13.1118L14.532 13.1118Z" fill="white"/>
<path fill-rule="evenodd" clip-rule="evenodd" d="M18.2815 8.20907C12.7247 8.20907 8.20801 12.7237 8.20801 18.2825C8.20801 20.3026 8.80657 22.1907 9.86199 23.8103L8.73547 27.5697C8.68629 27.7342 8.73324 27.9124 8.85717 28.0314C8.98109 28.1504 9.16107 28.1898 9.32347 28.1339L13.0032 26.864C14.5354 27.8098 16.3473 28.3559 18.2816 28.3559C23.8404 28.3559 28.355 23.8413 28.355 18.2825C28.355 12.7236 23.8404 8.20898 18.2816 8.20898L18.2815 8.20907ZM18.2815 9.12476C23.3456 9.12476 27.4392 13.2183 27.4392 18.2825C27.4392 23.3466 23.3456 27.4402 18.2815 27.4402C16.4458 27.4402 14.7384 26.9017 13.3106 25.9754V25.9756C13.1924 25.8988 13.0453 25.8809 12.912 25.9269L9.8689 26.9771L10.8007 23.8675C10.8403 23.7352 10.8181 23.5921 10.7405 23.4781C9.706 21.9602 9.12359 20.1923 9.12359 18.2823C9.12359 13.2182 13.2196 9.12464 18.2813 9.12464L18.2815 9.12476Z" fill="white"/>
<defs>
<linearGradient id="paint0_linear_135_1961" x1="31.7837" y1="48.9171" x2="-14.9542" y2="24.786" gradientUnits="userSpaceOnUse">
<stop stop-color="#8546D7"/>
<stop offset="1" stop-color="#B28EE1"/>
</linearGradient>
</defs>
</svg>
