<svg width="36" height="36" viewBox="0 0 36 36" fill="none" xmlns="http://www.w3.org/2000/svg">
<circle cx="18" cy="18" r="18" fill="url(#paint0_linear_135_689)"/>
<path d="M17.4998 8.00635C13.3613 8.00635 10 11.3686 10 15.5082C10 20.6789 13.6652 25.2976 17.2845 28.9178C17.341 28.9762 17.4188 29.0093 17.5 29.0093C17.5812 29.0093 17.659 28.9762 17.7155 28.9178C21.3347 25.2977 25 20.6791 25 15.5082C25 11.3686 21.6387 8.00635 17.5002 8.00635H17.4998ZM17.4998 8.60644C21.314 8.60644 24.3996 11.693 24.3996 15.5082C24.3996 20.2918 21.0036 24.7156 17.4998 28.2613C13.996 24.7155 10.6 20.2917 10.6 15.5082C10.6 11.693 13.6857 8.60644 17.4998 8.60644ZM17.4998 11.6072C15.3495 11.6072 13.5999 13.3573 13.5999 15.5082C13.5999 17.6592 15.3495 19.4092 17.4998 19.4092C19.6502 19.4092 21.3998 17.6592 21.3998 15.5082C21.3998 13.3573 19.6502 11.6072 17.4998 11.6072ZM17.4998 12.2073C19.3258 12.2073 20.7998 13.6817 20.7998 15.5082C20.7998 17.3347 19.3258 18.8091 17.4998 18.8091C15.6738 18.8091 14.1998 17.3347 14.1998 15.5082C14.1998 13.6817 15.6738 12.2073 17.4998 12.2073Z" fill="white"/>
<defs>
<linearGradient id="paint0_linear_135_689" x1="31.2941" y1="47.4286" x2="-14.7239" y2="23.6691" gradientUnits="userSpaceOnUse">
<stop stop-color="#8546D7"/>
<stop offset="1" stop-color="#B28EE1"/>
</linearGradient>
</defs>
</svg>
