<svg width="77" height="69" viewBox="0 0 77 69" fill="none" xmlns="http://www.w3.org/2000/svg">
<path fill-rule="evenodd" clip-rule="evenodd" d="M37.0342 0.723136C29.548 0.792031 21.1152 2.42442 14.1534 6.3124C6.72806 10.4592 0.965773 17.2866 0.113107 27.3897C-0.465282 34.1117 1.20101 39.7369 4.5056 44.0736C7.66572 48.2198 12.2816 51.1649 17.8229 52.8886L15.4317 66.4578H15.4323C15.3696 66.8253 15.5422 67.1921 15.8649 67.3783C16.1876 67.5645 16.5916 67.5304 16.8783 67.292L31.7527 54.7232C33.9818 54.4911 36.1106 54.1503 38.1753 53.722C42.4065 57.2463 48.4268 59.5458 55.4685 60.2565L65.2274 68.5154H65.2267C65.5166 68.7612 65.9305 68.7953 66.2569 68.601C66.5834 68.4061 66.7503 68.0257 66.6721 67.6539L65.143 59.0059C68.7338 57.8341 71.7603 55.8925 73.8449 53.1666C76.0759 50.2488 77.1769 46.4564 76.7921 41.9609C76.2193 35.1645 72.3059 30.531 67.2833 27.7516C67.3162 27.2923 67.3435 26.8448 67.3671 26.3892L67.3677 26.3886C67.3683 26.3706 67.3683 26.352 67.3677 26.3333C67.4782 13.2487 54.3421 1.04214 38.5086 0.75136C38.0183 0.742671 37.5343 0.719085 37.0353 0.723429L37.0342 0.723136ZM37.0342 2.50259C37.517 2.49825 38.0066 2.52183 38.4802 2.53052C53.4048 2.80487 65.6775 14.4444 65.5869 26.3043C65.5522 27.0032 65.5137 27.7033 65.4479 28.3338C64.2663 39.4799 54.1345 48.248 39.2022 51.6913C36.713 52.2815 34.0624 52.6912 31.2785 52.9705C31.1022 52.996 30.9378 53.0735 30.8056 53.1933L17.6273 64.3439L19.7125 52.4151V52.4144C19.7882 51.9744 19.5269 51.5467 19.1012 51.4133C13.5084 49.8113 8.92594 46.9649 5.89498 42.9882C2.86402 39.0116 1.3441 33.8817 1.89157 27.5277C2.694 18.0175 7.96477 11.8059 15.0147 7.86768C21.6241 4.17657 29.796 2.57079 37.0344 2.50135L37.0342 2.50259ZM67.061 29.6703C71.3785 32.2449 74.5143 36.1905 75.0127 42.1001C75.3664 46.2265 74.384 49.5235 72.4274 52.0825C70.4701 54.6421 67.5055 56.4782 63.8645 57.5327L63.8639 57.5321C63.4381 57.6656 63.1762 58.0932 63.2526 58.5333L64.5037 65.5408L56.413 58.7282C56.2777 58.6184 56.1132 58.5507 55.9401 58.5334C49.6826 57.9425 44.3076 56.0314 40.4265 53.2222C54.9138 49.6532 65.2614 40.9972 67.0614 29.6693L67.061 29.6703Z" fill="url(#paint0_linear_135_551)"/>
<defs>
<linearGradient id="paint0_linear_135_551" x1="-2.24902e-07" y1="18.5084" x2="79.5601" y2="20.5762" gradientUnits="userSpaceOnUse">
<stop stop-color="#8546D7"/>
<stop offset="1" stop-color="#B28EE1"/>
</linearGradient>
</defs>
</svg>
