<svg width="68" height="75" viewBox="0 0 68 75" fill="none" xmlns="http://www.w3.org/2000/svg">
<path d="M32.2563 68.3784C18.8297 68.3784 7.90552 57.4532 7.90552 44.0242V17.1398C7.90552 16.7902 8.18843 16.5072 8.538 16.5072H55.9732C56.3227 16.5072 56.6056 16.7902 56.6056 17.1398V44.0242C56.6056 57.4527 45.6819 68.3784 32.2549 68.3784H32.2563ZM9.17047 17.7731V44.0242C9.17047 56.7552 19.5268 67.1133 32.2563 67.1133C44.9858 67.1133 55.3421 56.7555 55.3421 44.0242V17.7731H9.17047Z" fill="url(#paint0_linear_135_558)"/>
<path d="M55.974 46.2379C55.8718 46.2379 55.7696 46.213 55.6759 46.1633C55.4703 46.0532 55.3416 45.8391 55.3416 45.6053V21.8844C55.3416 21.5348 55.6245 21.2518 55.974 21.2518H67.0423C67.3919 21.2518 67.6748 21.5348 67.6748 21.8844V38.1923C67.6748 38.4036 67.5698 38.6007 67.3942 38.7176L56.3258 46.1306C56.2197 46.2017 56.0971 46.2379 55.974 46.2379V46.2379ZM56.6065 22.517V44.4204L66.4099 37.8547V22.517H56.6065Z" fill="url(#paint1_linear_135_558)"/>
<path d="M43.3245 24.0986H8.53885C8.18929 24.0986 7.90637 23.8157 7.90637 23.4661C7.90637 23.1165 8.18929 22.8336 8.53885 22.8336H43.3245C43.674 22.8336 43.9569 23.1165 43.9569 23.4661C43.9569 23.8157 43.674 24.0986 43.3245 24.0986Z" fill="url(#paint2_linear_135_558)"/>
<path d="M48.1183 24.0986H48.0194C47.6699 24.0986 47.387 23.8157 47.387 23.4661C47.387 23.1165 47.6699 22.8336 48.0194 22.8336H48.1183C48.4678 22.8336 48.7507 23.1165 48.7507 23.4661C48.7507 23.8157 48.4673 24.0986 48.1183 24.0986Z" fill="url(#paint3_linear_135_558)"/>
<path d="M29.0948 30.4241H8.53885C8.18929 30.4241 7.90637 30.1412 7.90637 29.7917C7.90637 29.4421 8.18929 29.1592 8.53885 29.1592H29.0948C29.4443 29.1592 29.7272 29.4421 29.7272 29.7917C29.7272 30.1412 29.4443 30.4241 29.0948 30.4241Z" fill="url(#paint4_linear_135_558)"/>
<path d="M33.8871 30.4241H33.7882C33.4387 30.4241 33.1558 30.1412 33.1558 29.7917C33.1558 29.4421 33.4387 29.1592 33.7882 29.1592H33.8871C34.2366 29.1592 34.5195 29.4421 34.5195 29.7917C34.5195 30.1412 34.2361 30.4241 33.8871 30.4241Z" fill="url(#paint5_linear_135_558)"/>
<path d="M55.9741 74.7041H10.119C6.28293 74.7041 3.16174 71.5825 3.16174 67.7458C3.16174 67.3962 3.44466 67.1133 3.79422 67.1133H62.2989C62.6484 67.1133 62.9313 67.3962 62.9313 67.7458C62.9313 71.5825 59.8101 74.7041 55.9741 74.7041ZM4.46212 68.3784C4.7778 71.221 7.19472 73.439 10.1194 73.439H55.9745C58.8991 73.439 61.3161 71.221 61.6318 68.3784H4.46212Z" fill="url(#paint6_linear_135_558)"/>
<path d="M19.6067 17.773C19.2572 17.773 18.9742 17.4901 18.9742 17.1405C18.9742 13.3039 22.0954 10.1822 25.9315 10.1822H50.4399C51.3988 10.1822 52.1792 9.40169 52.1792 8.44271C52.1792 7.48372 51.3987 6.70318 50.4399 6.70318H21.1883C18.2241 6.70318 15.8121 4.2909 15.8121 1.32629C15.8121 0.976682 16.0951 0.693726 16.4446 0.693726C16.7942 0.693726 17.0771 0.976682 17.0771 1.32629C17.0771 3.59341 18.9215 5.43805 21.1883 5.43805H50.4399C52.0967 5.43805 53.4441 6.78564 53.4441 8.44271C53.4441 10.0998 52.0967 11.4474 50.4399 11.4474H25.9315C22.7928 11.4474 20.2392 14.0013 20.2392 17.1405C20.2392 17.4901 19.9563 17.773 19.6067 17.773Z" fill="url(#paint7_linear_135_558)"/>
<path d="M65.4619 74.7039H0.632479C0.282917 74.7039 0 74.421 0 74.0714C0 73.7219 0.282917 73.439 0.632479 73.439H65.4619C65.8115 73.439 66.0944 73.7219 66.0944 74.0714C66.0944 74.421 65.8115 74.7039 65.4619 74.7039Z" fill="url(#paint8_linear_135_558)"/>
<path d="M31.402 56.7392H31.4014C31.005 56.7392 30.6063 56.7217 30.2161 56.6867C29.9112 56.6595 29.67 56.4178 29.6429 56.1128C29.2589 51.8283 31.0242 47.2738 34.3645 43.9291C37.4021 40.8945 41.4133 39.1538 45.369 39.1538C45.7632 39.1538 46.1596 39.1713 46.547 39.2063C46.852 39.2334 47.0931 39.4752 47.1208 39.7802C47.5048 44.0659 45.7384 48.6203 42.3947 51.9645C39.3606 54.9985 35.3533 56.7392 31.4021 56.7392H31.402ZM30.8667 55.4622C34.6615 55.6311 38.5637 54.0062 41.5003 51.0692C44.4407 48.1277 46.0597 44.1883 45.8965 40.4308C42.1045 40.2636 38.1966 41.8891 35.259 44.8238C32.3209 47.7653 30.7034 51.7052 30.8667 55.4622Z" fill="url(#paint9_linear_135_558)"/>
<path d="M30.2729 56.6886C30.2289 56.6886 30.1854 56.6841 30.1413 56.675C27.1484 56.0391 24.3598 54.4955 22.0755 52.2115C18.7342 48.8697 16.9689 44.3146 17.3534 40.0272C17.3805 39.7222 17.6222 39.481 17.9266 39.4533C18.314 39.4189 18.7098 39.4014 19.104 39.4014C23.0615 39.4014 27.0727 41.1432 30.1091 44.1801C31.12 45.1945 31.9941 46.3178 32.7084 47.5186C32.8248 47.714 32.827 47.9569 32.7146 48.1546C31.3226 50.6013 30.6783 53.362 30.8969 55.9368C30.9042 55.9752 30.9082 56.0153 30.9082 56.056C30.9082 56.4056 30.6252 56.6885 30.2757 56.6885H30.2729L30.2729 56.6886ZM18.5778 40.6785C18.4134 44.4383 20.0314 48.3783 22.9701 51.3175C24.872 53.2197 27.1478 54.565 29.5936 55.24C29.5388 52.7672 30.1792 50.1884 31.4335 47.8581C30.8089 46.8624 30.0635 45.9271 29.2141 45.0742C26.2781 42.1378 22.3676 40.5147 18.5778 40.6785Z" fill="url(#paint10_linear_135_558)"/>
<path d="M30.5924 52.4399C30.4704 52.4399 30.3468 52.4049 30.2378 52.3309L24.6929 48.571C24.4038 48.375 24.3287 47.9814 24.5246 47.6923C24.7206 47.4032 25.1142 47.3275 25.4033 47.524L30.9482 51.2839C31.2373 51.4799 31.3124 51.8735 31.1165 52.1626C30.9945 52.3427 30.7951 52.4399 30.5924 52.4399Z" fill="url(#paint11_linear_135_558)"/>
<path d="M30.2728 56.6886C30.1108 56.6886 29.9493 56.627 29.8256 56.5034C29.5788 56.2565 29.5788 55.8555 29.8256 55.6087L37.9349 47.4983C38.1817 47.2509 38.5826 47.2509 38.8294 47.4983C39.0767 47.7451 39.0767 48.1461 38.8294 48.3929L30.7201 56.5034C30.5964 56.627 30.4349 56.6886 30.2728 56.6886H30.2728Z" fill="url(#paint12_linear_135_558)"/>
<defs>
<linearGradient id="paint0_linear_135_558" x1="7.90552" y1="30.0735" x2="58.3221" y2="31.1619" gradientUnits="userSpaceOnUse">
<stop stop-color="#8546D7"/>
<stop offset="1" stop-color="#B28EE1"/>
</linearGradient>
<linearGradient id="paint1_linear_135_558" x1="55.3416" y1="27.7866" x2="68.1138" y2="27.9316" gradientUnits="userSpaceOnUse">
<stop stop-color="#8546D7"/>
<stop offset="1" stop-color="#B28EE1"/>
</linearGradient>
<linearGradient id="paint2_linear_135_558" x1="7.90637" y1="23.1645" x2="34.0285" y2="40.2816" gradientUnits="userSpaceOnUse">
<stop stop-color="#8546D7"/>
<stop offset="1" stop-color="#B28EE1"/>
</linearGradient>
<linearGradient id="paint3_linear_135_558" x1="47.387" y1="23.1645" x2="48.7986" y2="23.1994" gradientUnits="userSpaceOnUse">
<stop stop-color="#8546D7"/>
<stop offset="1" stop-color="#B28EE1"/>
</linearGradient>
<linearGradient id="paint4_linear_135_558" x1="7.90637" y1="29.49" x2="27.4348" y2="37.2355" gradientUnits="userSpaceOnUse">
<stop stop-color="#8546D7"/>
<stop offset="1" stop-color="#B28EE1"/>
</linearGradient>
<linearGradient id="paint5_linear_135_558" x1="33.1558" y1="29.49" x2="34.5674" y2="29.525" gradientUnits="userSpaceOnUse">
<stop stop-color="#8546D7"/>
<stop offset="1" stop-color="#B28EE1"/>
</linearGradient>
<linearGradient id="paint6_linear_135_558" x1="3.16174" y1="69.0986" x2="63.1021" y2="79.9503" gradientUnits="userSpaceOnUse">
<stop stop-color="#8546D7"/>
<stop offset="1" stop-color="#B28EE1"/>
</linearGradient>
<linearGradient id="paint7_linear_135_558" x1="15.8121" y1="5.16062" x2="54.6888" y2="7.13016" gradientUnits="userSpaceOnUse">
<stop stop-color="#8546D7"/>
<stop offset="1" stop-color="#B28EE1"/>
</linearGradient>
<linearGradient id="paint8_linear_135_558" x1="-1.93381e-07" y1="73.7698" x2="28.0179" y2="107.43" gradientUnits="userSpaceOnUse">
<stop stop-color="#8546D7"/>
<stop offset="1" stop-color="#B28EE1"/>
</linearGradient>
<linearGradient id="paint9_linear_135_558" x1="29.5911" y1="43.7531" x2="47.7911" y2="44.1714" gradientUnits="userSpaceOnUse">
<stop stop-color="#8546D7"/>
<stop offset="1" stop-color="#B28EE1"/>
</linearGradient>
<linearGradient id="paint10_linear_135_558" x1="17.3014" y1="43.9226" x2="33.3441" y2="44.2533" gradientUnits="userSpaceOnUse">
<stop stop-color="#8546D7"/>
<stop offset="1" stop-color="#B28EE1"/>
</linearGradient>
<linearGradient id="paint11_linear_135_558" x1="24.4155" y1="48.729" x2="31.462" y2="48.9485" gradientUnits="userSpaceOnUse">
<stop stop-color="#8546D7"/>
<stop offset="1" stop-color="#B28EE1"/>
</linearGradient>
<linearGradient id="paint12_linear_135_558" x1="29.6405" y1="49.7649" x2="39.3447" y2="49.988" gradientUnits="userSpaceOnUse">
<stop stop-color="#8546D7"/>
<stop offset="1" stop-color="#B28EE1"/>
</linearGradient>
</defs>
</svg>
