<svg width="56" height="57" viewBox="0 0 56 57" fill="none" xmlns="http://www.w3.org/2000/svg">
<path d="M44.622 56.7029C47.8705 56.7029 50.9249 55.9364 53.7313 54.386C54.9507 53.7134 55.7617 52.5398 55.9552 51.1661C56.1476 49.8075 55.7012 48.473 54.7311 47.5028L46.3566 39.1272C45.2813 38.0516 43.6888 37.6234 42.2033 38.0026C34.848 39.8948 27.6929 38.2609 23.0672 33.6333C18.4415 29.007 16.8078 21.8515 18.6979 14.4945C19.0801 13.0077 18.6495 11.4161 17.5741 10.3406L9.19967 1.96503C8.22954 0.995365 6.89587 0.54651 5.53688 0.740701C4.16392 0.934877 2.98999 1.74607 2.31614 2.96554C-3.33118 13.1909 1.42886 26.6928 15.7179 40.9845C26.0847 51.3521 36.0339 56.7041 44.6227 56.7041L44.622 56.7029ZM3.83369 3.80206C4.24074 3.06347 4.95019 2.57348 5.77874 2.45613C5.90212 2.43859 6.02612 2.43012 6.14888 2.43012C6.83052 2.43012 7.48012 2.6969 7.97239 3.18988L16.3468 11.5655C16.9904 12.2091 17.2474 13.1661 17.017 14.0613C14.9727 22.0196 16.7756 29.7933 21.8398 34.8587C26.9028 39.923 34.6749 41.725 42.6342 39.6817C43.5306 39.4524 44.4868 39.7095 45.1303 40.3525L53.5048 48.7281C54.086 49.3089 54.3533 50.1092 54.2384 50.9222C54.1211 51.7515 53.6312 52.4598 52.8927 52.8675C40.0915 59.9364 24.8736 47.6883 16.9429 39.756C9.0118 31.8231 -3.23679 16.6049 3.83332 3.80126L3.83369 3.80206Z" fill="url(#paint0_linear_135_539)"/>
<path d="M52.8918 26.5661C52.9602 26.5661 53.0297 26.5583 53.0999 26.5407C53.565 26.427 53.8493 25.957 53.735 25.4924C52.4945 20.4408 49.5429 15.3911 45.4234 11.2716C41.3057 7.15205 36.256 4.20016 31.2045 2.95944C30.7382 2.84148 30.2701 3.12943 30.1552 3.5946C30.0408 4.05978 30.3251 4.5298 30.7902 4.64291C35.5381 5.80979 40.2999 8.59967 44.1968 12.4977C48.095 16.3958 50.8839 21.1577 52.0499 25.9056C52.1479 26.3012 52.5017 26.5661 52.8919 26.5661L52.8918 26.5661Z" fill="url(#paint1_linear_135_539)"/>
<path d="M27.0683 19.8019C26.6044 19.6834 26.1338 19.9719 26.0189 20.4371C25.9046 20.9023 26.1889 21.3711 26.654 21.4854C28.3445 21.901 30.2691 23.0951 31.9353 24.7609C33.6016 26.4275 34.7956 28.3522 35.2104 30.043C35.3071 30.4386 35.6616 30.7035 36.0517 30.7035C36.12 30.7035 36.1896 30.6957 36.2591 30.6781C36.7242 30.5644 37.0091 30.0944 36.8948 29.6298C36.4067 27.6402 35.0459 25.4191 33.1619 23.5348C31.2785 21.6517 29.0575 20.2907 27.0683 19.8019L27.0683 19.8019Z" fill="url(#paint2_linear_135_539)"/>
<path d="M43.6312 27.9737C43.728 28.3693 44.0824 28.6343 44.4725 28.6343C44.5409 28.6343 44.6104 28.6264 44.68 28.6089C45.1451 28.4952 45.43 28.0252 45.3156 27.5606C44.4483 24.0267 42.3097 20.419 39.2939 17.4023C36.2777 14.3867 32.6711 12.2472 29.137 11.3803C28.6725 11.2599 28.202 11.5497 28.0883 12.0155C27.9739 12.4807 28.2582 12.9507 28.7239 13.0638C31.9543 13.8574 35.273 15.8337 38.068 18.6284C40.8623 21.425 42.8383 24.744 43.6312 27.9738V27.9737Z" fill="url(#paint3_linear_135_539)"/>
<defs>
<linearGradient id="paint0_linear_135_539" x1="-1.63844e-07" y1="15.3445" x2="57.9691" y2="16.6771" gradientUnits="userSpaceOnUse">
<stop stop-color="#8546D7"/>
<stop offset="1" stop-color="#B28EE1"/>
</linearGradient>
<linearGradient id="paint1_linear_135_539" x1="30.1299" y1="9.11397" x2="54.5915" y2="9.67634" gradientUnits="userSpaceOnUse">
<stop stop-color="#8546D7"/>
<stop offset="1" stop-color="#B28EE1"/>
</linearGradient>
<linearGradient id="paint2_linear_135_539" x1="25.9937" y1="22.6334" x2="37.3044" y2="22.8934" gradientUnits="userSpaceOnUse">
<stop stop-color="#8546D7"/>
<stop offset="1" stop-color="#B28EE1"/>
</linearGradient>
<linearGradient id="paint3_linear_135_539" x1="28.063" y1="15.8727" x2="45.9487" y2="16.2839" gradientUnits="userSpaceOnUse">
<stop stop-color="#8546D7"/>
<stop offset="1" stop-color="#B28EE1"/>
</linearGradient>
</defs>
</svg>
